{
  "accessors": [
    {
      "bufferView": 1,
      "componentType": 5126,
      "count": 4853,
      "max": [
        3.1105465888977051,
        1.1895337104797363,
        1.8713995218276978
      ],
      "min": [
        0,
        0.39612489938735962,
        0
      ],
      "type": "VEC3"
    },
    {
      "bufferView": 1,
      "byteOffset": 58236,
      "componentType": 5126,
      "count": 4853,
      "max": [
        1,
        1,
        1
      ],
      "min": [
        -1,
        -1,
        -1
      ],
      "type": "VEC3"
    },
    {
      "bufferView": 2,
      "componentType": 5126,
      "count": 4853,
      "max": [
        0.99607843160629272,
        0.78431373834609985,
        0.44313725829124451,
        1
      ],
      "min": [
        0,
        0,
        0,
        1
      ],
      "type": "VEC4"
    },
    {
      "bufferView": 0,
      "componentType": 5125,
      "count": 12474,
      "max": [
        4852
      ],
      "min": [
        0
      ],
      "type": "SCALAR"
    },
    {
      "bufferView": 1,
      "byteOffset": 116472,
      "componentType": 5126,
      "count": 3665,
      "max": [
        2.9861586093902588,
        1.1950569152832031,
        1.845339298248291
      ],
      "min": [
        0,
        0.39060166478157043,
        0.011883020401000977
      ],
      "type": "VEC3"
    },
    {
      "bufferView": 1,
      "byteOffset": 160452,
      "componentType": 5126,
      "count": 3665,
      "max": [
        1,
        1,
        1
      ],
      "min": [
        -1,
        -1,
        -1
      ],
      "type": "VEC3"
    },
    {
      "bufferView": 2,
      "byteOffset": 77648,
      "componentType": 5126,
      "count": 3665,
      "max": [
        0.99607843160629272,
        0.78431373834609985,
        0.44313725829124451,
        1
      ],
      "min": [
        0,
        0,
        0,
        1
      ],
      "type": "VEC4"
    },
    {
      "bufferView": 0,
      "byteOffset": 49896,
      "componentType": 5125,
      "count": 8940,
      "max": [
        3664
      ],
      "min": [
        0
      ],
      "type": "SCALAR"
    },
    {
      "bufferView": 1,
      "byteOffset": 204432,
      "componentType": 5126,
      "count": 4216,
      "max": [
        3.0300064086914062,
        1.5837070941925049,
        1.8192329406738281
      ],
      "min": [
        0.032222509384155273,
        0,
        0.050899624824523926
      ],
      "type": "VEC3"
    },
    {
      "bufferView": 1,
      "byteOffset": 255024,
      "componentType": 5126,
      "count": 4216,
      "max": [
        1,
        1,
        1
      ],
      "min": [
        -1,
        -1,
        -1
      ],
      "type": "VEC3"
    },
    {
      "bufferView": 2,
      "byteOffset": 136288,
      "componentType": 5126,
      "count": 4216,
      "max": [
        0.85882353782653809,
        0.35686275362968445,
        0.35686275362968445,
        1
      ],
      "min": [
        0,
        0,
        0,
        1
      ],
      "type": "VEC4"
    },
    {
      "bufferView": 0,
      "byteOffset": 85656,
      "componentType": 5125,
      "count": 13194,
      "max": [
        4215
      ],
      "min": [
        0
      ],
      "type": "SCALAR"
    },
    {
      "bufferView": 1,
      "byteOffset": 305616,
      "componentType": 5126,
      "count": 1958,
      "max": [
        3.0300064086914062,
        1.5837070941925049,
        1.8192329406738281
      ],
      "min": [
        0.14512014389038086,
        0,
        0.44913527369499207
      ],
      "type": "VEC3"
    },
    {
      "bufferView": 1,
      "byteOffset": 329112,
      "componentType": 5126,
      "count": 1958,
      "max": [
        0.94497859477996826,
        0.96394294500350952,
        0.99887800216674805
      ],
      "min": [
        -0.94692033529281616,
        -0.96452981233596802,
        -0.99920761585235596
      ],
      "type": "VEC3"
    },
    {
      "bufferView": 2,
      "byteOffset": 203744,
      "componentType": 5126,
      "count": 1958,
      "max": [
        0.85882353782653809,
        0.31372550129890442,
        0.12941177189350128,
        1
      ],
      "min": [
        0.30588236451148987,
        0.19215686619281769,
        0.066666670143604279,
        1
      ],
      "type": "VEC4"
    },
    {
      "bufferView": 0,
      "byteOffset": 138432,
      "componentType": 5125,
      "count": 4104,
      "max": [
        1957
      ],
      "min": [
        0
      ],
      "type": "SCALAR"
    }
  ],
  "asset": {
    "extras": {
      "author": "Xillute | Dev (https://sketchfab.com/janchristian)",
      "license": "CC-BY-NC-ND-4.0 (http://creativecommons.org/licenses/by-nc-nd/4.0/)",
      "source": "https://sketchfab.com/models/1093da7891e0465b8f6a5dfa2d1f814d",
      "title": "Tanai Hyudra | War Ship"
    },
    "generator": "Sketchfab-3.18.7",
    "version": "2.0"
  },
  "bufferViews": [
    {
      "buffer": 0,
      "byteLength": 154848,
      "byteOffset": 0,
      "name": "floatBufferViews",
      "target": 34963
    },
    {
      "buffer": 0,
      "byteLength": 352608,
      "byteOffset": 154848,
      "byteStride": 12,
      "name": "floatBufferViews",
      "target": 34962
    },
    {
      "buffer": 0,
      "byteLength": 235072,
      "byteOffset": 507456,
      "byteStride": 16,
      "name": "floatBufferViews",
      "target": 34962
    }
  ],
  "buffers": [
    {
      "byteLength": 742528,
      "uri": "scene.bin"
    }
  ],
  "materials": [
    {
      "doubleSided": true,
      "emissiveFactor": [
        0,
        0,
        0
      ],
      "name": "material_0",
      "pbrMetallicRoughness": {
        "baseColorFactor": [
          1,
          1,
          1,
          1
        ],
        "metallicFactor": 0.66000000000000003,
        "roughnessFactor": 0.41999999999999998
      }
    }
  ],
  "meshes": [
    {
      "primitives": [
        {
          "attributes": {
            "COLOR_0": 2,
            "NORMAL": 1,
            "POSITION": 0
          },
          "indices": 3,
          "material": 0,
          "mode": 4
        }
      ]
    },
    {
      "primitives": [
        {
          "attributes": {
            "COLOR_0": 6,
            "NORMAL": 5,
            "POSITION": 4
          },
          "indices": 7,
          "material": 0,
          "mode": 4
        }
      ]
    },
    {
      "primitives": [
        {
          "attributes": {
            "COLOR_0": 10,
            "NORMAL": 9,
            "POSITION": 8
          },
          "indices": 11,
          "material": 0,
          "mode": 4
        }
      ]
    },
    {
      "primitives": [
        {
          "attributes": {
            "COLOR_0": 14,
            "NORMAL": 13,
            "POSITION": 12
          },
          "indices": 15,
          "material": 0,
          "mode": 4
        }
      ]
    }
  ],
  "nodes": [
    {
      "children": [
        1
      ],
      "name": "RootNode (gltf orientation matrix)",
      "rotation": [
        -0.70710678118654746,
        -0,
        -0,
        0.70710678118654757
      ]
    },
    {
      "children": [
        2
      ],
      "name": "RootNode (model correction matrix)"
    },
    {
      "children": [
        3
      ],
      "matrix": [
        1,
        0,
        0,
        0,
        0,
        1,
        0,
        0,
        0,
        0,
        1,
        0,
        -2.2007803916931152,
        -0.79282927513122559,
        -0.36173808574676514,
        1
      ],
      "name": "ffe8776c764340a7902b369d75161788.obj.cleaner.gles"
    },
    {
      "children": [
        4,
        5,
        6,
        7
      ],
      "name": ""
    },
    {
      "mesh": 0,
      "name": ""
    },
    {
      "mesh": 1,
      "name": ""
    },
    {
      "mesh": 2,
      "name": ""
    },
    {
      "mesh": 3,
      "name": ""
    }
  ],
  "scene": 0,
  "scenes": [
    {
      "name": "OSG_Scene",
      "nodes": [
        0
      ]
    }
  ]
}

