<?xml version="1.0" standalone="no"?>
<!DOCTYPE svg PUBLIC "-//W3C//DTD SVG 20010904//EN"
 "http://www.w3.org/TR/2001/REC-SVG-20010904/DTD/svg10.dtd">
<svg version="1.0" xmlns="http://www.w3.org/2000/svg"
 width="512.000000pt" height="512.000000pt" viewBox="0 0 512.000000 512.000000"
 preserveAspectRatio="xMidYMid meet">

<g transform="translate(0.000000,512.000000) scale(0.100000,-0.100000)"
fill="#000000" stroke="none">
<path d="M2438 4946 c-34 -25 -38 -64 -38 -347 l0 -279 -165 0 c-180 0 -208
-6 -224 -52 -12 -34 -6 -52 27 -93 40 -48 80 -141 92 -218 15 -86 8 -169 -24
-279 -40 -135 -25 -148 163 -148 l131 0 0 -85 0 -85 -162 0 c-246 0 -250 -4
-208 -219 31 -159 40 -174 99 -169 23 2 40 12 54 29 18 25 18 32 7 100 -6 41
-14 82 -16 92 -5 16 14 17 290 17 l296 0 35 -55 c141 -219 250 -565 299 -945
20 -155 38 -453 34 -570 l-3 -95 -507 -3 c-403 -2 -508 0 -508 10 0 7 9 42 20
78 29 94 67 286 86 435 12 92 18 207 18 393 l1 264 -28 24 c-15 13 -34 24 -42
24 -28 0 -66 -24 -70 -44 -3 -12 -7 -138 -9 -281 -5 -354 -39 -584 -126 -856
-62 -195 -57 -199 232 -199 l208 0 0 -100 0 -100 -417 0 c-326 1 -426 4 -456
14 -63 23 -113 64 -143 119 -26 49 -29 61 -34 202 -5 133 -8 155 -28 187 -26
42 -81 93 -111 103 -19 6 -21 14 -21 95 l0 89 336 3 336 3 24 28 c24 28 24 31
24 236 0 660 -149 1212 -414 1536 l-24 30 -141 3 -141 4 0 84 0 84 178 0 c238
0 222 -17 222 237 l0 192 -26 20 c-25 20 -39 21 -249 21 -204 0 -225 -2 -246
-19 l-24 -19 -3 -301 -3 -301 -164 0 c-90 0 -175 -4 -189 -10 -48 -18 -51 -45
-23 -193 46 -236 60 -412 54 -692 -7 -324 -32 -485 -119 -741 -67 -198 -60
-204 242 -204 l200 0 0 -85 0 -85 -499 0 -500 0 -20 -26 c-20 -25 -21 -40 -21
-209 0 -243 -11 -229 187 -233 l149 -3 102 -472 c57 -260 105 -482 108 -494 6
-21 2 -20 -58 12 -76 40 -163 65 -231 65 -38 0 -53 -5 -72 -25 -53 -52 -13
-125 68 -125 63 0 120 -20 221 -78 112 -65 204 -87 321 -79 92 7 160 29 259
87 90 53 144 70 220 70 82 0 138 -18 233 -73 99 -58 159 -78 253 -84 117 -8
179 8 325 84 l130 67 100 1 c110 0 90 7 291 -98 142 -74 325 -75 468 -1 39 21
98 51 131 68 54 28 67 31 156 31 l96 0 134 -68 c77 -39 157 -72 188 -77 138
-25 253 -3 391 74 104 59 153 76 218 76 81 0 119 74 66 127 -24 24 -30 25 -97
20 -90 -7 -144 -26 -254 -87 -47 -27 -108 -54 -136 -61 -58 -14 -168 -7 -217
13 l-34 14 79 43 c121 65 226 145 323 245 202 209 316 449 352 741 6 49 12 91
14 92 2 2 135 14 297 28 291 24 294 24 317 50 35 41 28 86 -17 109 -22 12
-100 8 -556 -30 -291 -24 -538 -44 -547 -44 -16 0 -18 13 -18 130 l0 130 271
0 271 0 30 31 31 30 -6 109 c-12 212 -91 480 -173 587 l-25 33 -200 0 -199 0
0 90 0 90 199 0 200 0 21 28 c21 25 22 34 16 137 -11 181 -62 379 -137 526
-45 90 -62 99 -190 99 l-109 0 0 85 0 85 175 0 c238 0 225 -13 225 224 0 187
-6 216 -47 235 -15 7 -102 11 -237 11 -201 0 -215 -1 -240 -21 l-26 -20 0
-300 0 -299 -154 0 c-140 0 -156 -2 -180 -21 -38 -30 -35 -71 13 -139 86 -124
111 -275 71 -430 -49 -191 -48 -193 122 -200 l123 -5 0 -85 0 -85 -120 -3
c-108 -2 -122 -4 -137 -23 -24 -28 -23 -51 7 -125 56 -141 56 -293 -2 -479
-44 -142 -23 -165 150 -165 l107 0 0 -134 c0 -151 7 -139 -82 -151 -92 -12
-179 -67 -317 -200 -176 -168 -148 -160 -541 -160 l-315 0 -3 97 -3 97 340 3
c339 3 341 3 363 26 23 22 23 24 22 295 -2 564 -89 1009 -270 1372 -72 146
-137 244 -174 262 -16 8 -71 13 -153 13 l-128 0 3 83 3 82 182 5 c228 6 219 0
216 140 -4 184 -49 371 -130 536 -51 106 -64 114 -180 114 l-94 0 3 83 3 82
185 6 c102 3 186 6 188 7 2 1 10 18 18 37 17 41 20 328 4 371 -20 52 -28 53
-270 53 -169 0 -229 -3 -242 -13z m372 -221 l0 -85 -130 0 -130 0 0 85 0 85
130 0 130 0 0 -85z m-1370 -480 l0 -85 -125 0 -125 0 0 85 0 85 125 0 125 0 0
-85z m1260 -127 c58 -134 100 -301 100 -394 l0 -44 -266 0 -266 0 9 53 c4 28
8 99 7 157 -1 89 -6 119 -31 193 l-29 87 227 0 227 0 22 -52z m1510 -113 l0
-85 -125 0 -125 0 0 85 0 85 125 0 125 0 0 -85z m-2764 -387 c104 -158 200
-410 248 -649 42 -209 57 -344 63 -586 l6 -233 -507 0 c-407 0 -506 3 -506 13
0 7 11 51 25 99 80 275 114 608 95 929 -10 157 -34 364 -56 467 l-6 32 295 0
295 0 48 -72z m2703 -240 c35 -77 76 -224 86 -303 3 -27 8 -65 11 -82 l5 -33
-271 0 -272 0 9 43 c4 23 8 96 7 162 0 103 -4 131 -27 198 -15 42 -27 80 -27
82 0 3 101 5 224 5 l223 0 32 -72z m162 -964 c49 -108 112 -386 93 -415 -5 -9
-694 -13 -694 -5 0 3 6 33 14 68 30 131 30 274 -1 396 l-5 22 282 0 281 0 30
-66z m-3136 -759 c21 -20 25 -34 25 -85 l0 -60 -525 0 -525 0 0 85 0 85 500 0
501 0 24 -25z m3151 -217 c-3 -13 -8 -49 -11 -81 -14 -127 -71 -287 -149 -420
l-40 -67 -1518 0 -1519 0 -26 -26 c-20 -20 -24 -31 -19 -57 14 -67 -111 -61
1493 -67 l1456 -5 -39 -35 c-94 -85 -229 -167 -361 -219 -42 -16 -58 -18 -80
-10 -47 18 -185 23 -256 9 -38 -7 -98 -29 -139 -51 -152 -81 -179 -92 -249
-97 -90 -6 -147 9 -249 68 -110 62 -167 81 -265 87 -136 9 -182 -4 -380 -110
-55 -30 -85 -39 -141 -44 -94 -8 -154 8 -257 67 -109 63 -164 81 -262 87 -137
9 -185 -5 -391 -116 -52 -28 -73 -33 -135 -35 l-73 -1 -42 195 c-24 107 -44
198 -44 203 0 4 43 7 95 7 88 0 98 2 120 25 31 30 32 71 3 102 -20 21 -29 23
-134 23 -62 0 -115 3 -117 8 -3 4 -26 103 -51 220 -25 117 -49 224 -52 237
l-6 25 360 0 359 0 22 -57 c41 -111 119 -189 235 -237 50 -21 65 -21 868 -24
903 -3 891 -4 1011 60 37 20 107 78 187 154 104 99 137 125 180 139 41 14 343
46 603 64 13 1 16 -5 13 -21z"/>
</g>
</svg>
